{
    "streams": [
        {
            "index": 0,
            "codec_name": "h264",
            "codec_long_name": "H.264 / AVC / MPEG-4 AVC / MPEG-4 part 10",
            "profile": "High",
            "codec_type": "video",
            "codec_tag_string": "avc1",
            "codec_tag": "0x31637661",
            "width": 1920,
            "height": 1080,
            "coded_width": 1920,
            "coded_height": 1080,
            "closed_captions": 0,
            "film_grain": 0,
            "has_b_frames": 0,
            "pix_fmt": "yuv420p",
            "level": 42,
            "color_range": "tv",
            "color_space": "bt709",
            "color_transfer": "bt709",
            "color_primaries": "bt709",
            "chroma_location": "left",
            "field_order": "progressive",
            "refs": 1,
            "is_avc": "true",
            "nal_length_size": "4",
            "id": "0x1",
            "r_frame_rate": "60/1",
            "avg_frame_rate": "30400/507",
            "time_base": "1/600",
            "start_pts": 0,
            "start_time": "0.000000",
            "duration_ts": 1520,
            "duration": "2.533333",
            "bit_rate": "23622153",
            "bits_per_raw_sample": "8",
            "nb_frames": "152",
            "extradata_size": 158,
            "disposition": {
                "default": 1,
                "dub": 0,
                "original": 0,
                "comment": 0,
                "lyrics": 0,
                "karaoke": 0,
                "forced": 0,
                "hearing_impaired": 0,
                "visual_impaired": 0,
                "clean_effects": 0,
                "attached_pic": 0,
                "timed_thumbnails": 0,
                "non_diegetic": 0,
                "captions": 0,
                "descriptions": 0,
                "metadata": 0,
                "dependent": 0,
                "still_image": 0
            },
            "tags": {
                "creation_time": "2025-02-27T12:37:56.000000Z",
                "language": "und",
                "handler_name": "Core Media Video",
                "vendor_id": "[0][0][0][0]",
                "encoder": "H.264"
            },
            "side_data_list": [
                {
                    "side_data_type": "Display Matrix",
                    "displaymatrix": "\n00000000:            0       65536           0\n00000001:       -65536           0           0\n00000002:     70778880           0  1073741824\n",
                    "rotation": -90
                }
            ]
        },
        {
            "index": 1,
            "codec_name": "aac",
            "codec_long_name": "AAC (Advanced Audio Coding)",
            "profile": "LC",
            "codec_type": "audio",
            "codec_tag_string": "mp4a",
            "codec_tag": "0x6134706d",
            "sample_fmt": "fltp",
            "sample_rate": "44100",
            "channels": 2,
            "channel_layout": "stereo",
            "bits_per_sample": 0,
            "initial_padding": 0,
            "id": "0x2",
            "r_frame_rate": "0/0",
            "avg_frame_rate": "0/0",
            "time_base": "1/44100",
            "start_pts": 0,
            "start_time": "0.000000",
            "duration_ts": 111720,
            "duration": "2.533333",
            "bit_rate": "142811",
            "nb_frames": "112",
            "extradata_size": 2,
            "disposition": {
                "default": 1,
                "dub": 0,
                "original": 0,
                "comment": 0,
                "lyrics": 0,
                "karaoke": 0,
                "forced": 0,
                "hearing_impaired": 0,
                "visual_impaired": 0,
                "clean_effects": 0,
                "attached_pic": 0,
                "timed_thumbnails": 0,
                "non_diegetic": 0,
                "captions": 0,
                "descriptions": 0,
                "metadata": 0,
                "dependent": 0,
                "still_image": 0
            },
            "tags": {
                "creation_time": "2025-02-27T12:37:56.000000Z",
                "language": "und",
                "handler_name": "Core Media Audio",
                "vendor_id": "[0][0][0][0]"
            }
        },
        {
            "index": 2,
            "codec_type": "data",
            "codec_tag_string": "mebx",
            "codec_tag": "0x7862656d",
            "id": "0x3",
            "r_frame_rate": "0/0",
            "avg_frame_rate": "0/0",
            "time_base": "1/600",
            "start_pts": 0,
            "start_time": "0.000000",
            "duration_ts": 1520,
            "duration": "2.533333",
            "bit_rate": "31",
            "nb_frames": "1",
            "disposition": {
                "default": 1,
                "dub": 0,
                "original": 0,
                "comment": 0,
                "lyrics": 0,
                "karaoke": 0,
                "forced": 0,
                "hearing_impaired": 0,
                "visual_impaired": 0,
                "clean_effects": 0,
                "attached_pic": 0,
                "timed_thumbnails": 0,
                "non_diegetic": 0,
                "captions": 0,
                "descriptions": 0,
                "metadata": 0,
                "dependent": 0,
                "still_image": 0
            },
            "tags": {
                "creation_time": "2025-02-27T12:37:56.000000Z",
                "language": "und",
                "handler_name": "Core Media Metadata"
            }
        },
        {
            "index": 3,
            "codec_type": "data",
            "codec_tag_string": "mebx",
            "codec_tag": "0x7862656d",
            "id": "0x4",
            "r_frame_rate": "0/0",
            "avg_frame_rate": "0/0",
            "time_base": "1/600",
            "start_pts": 0,
            "start_time": "0.000000",
            "duration_ts": 1520,
            "duration": "2.533333",
            "bit_rate": "25",
            "nb_frames": "1",
            "disposition": {
                "default": 1,
                "dub": 0,
                "original": 0,
                "comment": 0,
                "lyrics": 0,
                "karaoke": 0,
                "forced": 0,
                "hearing_impaired": 0,
                "visual_impaired": 0,
                "clean_effects": 0,
                "attached_pic": 0,
                "timed_thumbnails": 0,
                "non_diegetic": 0,
                "captions": 0,
                "descriptions": 0,
                "metadata": 0,
                "dependent": 0,
                "still_image": 0
            },
            "tags": {
                "creation_time": "2025-02-27T12:37:56.000000Z",
                "language": "und",
                "handler_name": "Core Media Metadata"
            }
        },
        {
            "index": 4,
            "codec_type": "data",
            "codec_tag_string": "mebx",
            "codec_tag": "0x7862656d",
            "id": "0x5",
            "r_frame_rate": "0/0",
            "avg_frame_rate": "0/0",
            "time_base": "1/600",
            "start_pts": 0,
            "start_time": "0.000000",
            "duration_ts": 1520,
            "duration": "2.533333",
            "bit_rate": "69074",
            "nb_frames": "152",
            "disposition": {
                "default": 1,
                "dub": 0,
                "original": 0,
                "comment": 0,
                "lyrics": 0,
                "karaoke": 0,
                "forced": 0,
                "hearing_impaired": 0,
                "visual_impaired": 0,
                "clean_effects": 0,
                "attached_pic": 0,
                "timed_thumbnails": 0,
                "non_diegetic": 0,
                "captions": 0,
                "descriptions": 0,
                "metadata": 0,
                "dependent": 0,
                "still_image": 0
            },
            "tags": {
                "creation_time": "2025-02-27T12:37:56.000000Z",
                "language": "und",
                "handler_name": "Core Media Metadata"
            }
        },
        {
            "index": 5,
            "codec_type": "data",
            "codec_tag_string": "mebx",
            "codec_tag": "0x7862656d",
            "id": "0x6",
            "r_frame_rate": "0/0",
            "avg_frame_rate": "0/0",
            "time_base": "1/600",
            "start_pts": 0,
            "start_time": "0.000000",
            "duration_ts": 1520,
            "duration": "2.533333",
            "bit_rate": "138",
            "nb_frames": "1",
            "disposition": {
                "default": 1,
                "dub": 0,
                "original": 0,
                "comment": 0,
                "lyrics": 0,
                "karaoke": 0,
                "forced": 0,
                "hearing_impaired": 0,
                "visual_impaired": 0,
                "clean_effects": 0,
                "attached_pic": 0,
                "timed_thumbnails": 0,
                "non_diegetic": 0,
                "captions": 0,
                "descriptions": 0,
                "metadata": 0,
                "dependent": 0,
                "still_image": 0
            },
            "tags": {
                "creation_time": "2025-02-27T12:37:56.000000Z",
                "language": "und",
                "handler_name": "Core Media Metadata"
            }
        }
    ]
}
